<svg width="57" height="47" viewBox="0 0 57 47" fill="none" xmlns="http://www.w3.org/2000/svg">
<g clip-path="url(#clip0_4543_494)">
<g filter="url(#filter0_d_4543_494)">
<path d="M30.2979 7.10985C32.0448 6.00555 34.4278 5.95694 36.5493 6.98233L49.4862 13.2352C51.6077 14.2606 53.1454 16.2042 53.5199 18.3339L55.804 31.3209C56.1786 33.4506 55.3332 35.4428 53.5863 36.5471L42.9334 43.2812C41.1865 44.3855 38.8035 44.4341 36.682 43.4087L23.745 37.1558C21.6236 36.1304 20.0859 34.1868 19.7114 32.0571L17.4273 19.0701C17.0527 16.9404 17.8981 14.9482 19.645 13.8439L30.2979 7.10985Z" fill="#139511"/>
<path d="M49.672 12.7995L36.735 6.54662C34.4367 5.43578 31.8551 5.48844 29.9626 6.68476L19.3098 13.4188C17.4173 14.6151 16.5014 16.7734 16.9072 19.0805L19.1913 32.0675C19.5971 34.3747 21.2629 36.4802 23.5611 37.5911L36.4981 43.844C38.7964 44.9548 41.378 44.9022 43.2705 43.7058L53.9233 36.9718C55.8158 35.7754 56.7317 33.6172 56.3259 31.31L54.0418 18.3231C53.636 16.0159 51.9702 13.9103 49.672 12.7995Z" stroke="url(#paint0_linear_4543_494)" stroke-width="1.02558"/>
</g>
<g style="mix-blend-mode:overlay" opacity="0.2" filter="url(#filter1_f_4543_494)">
<path d="M17.6809 3.30469L16.8515 17.3647L14.5508 31.2599L15.3802 17.1999L17.6809 3.30469Z" fill="white"/>
<path d="M30.092 18.8479L16.032 18.0185L2.13672 15.7178L16.1967 16.5472L30.092 18.8479Z" fill="white"/>
</g>
<g style="mix-blend-mode:overlay" opacity="0.2" filter="url(#filter2_f_4543_494)">
<path d="M17.6809 3.30469L16.8515 17.3647L14.5508 31.2599L15.3802 17.1999L17.6809 3.30469Z" fill="white"/>
<path d="M30.092 18.8479L16.032 18.0185L2.13672 15.7178L16.1967 16.5472L30.092 18.8479Z" fill="white"/>
</g>
<g style="mix-blend-mode:overlay" opacity="0.2" filter="url(#filter3_f_4543_494)">
<path d="M17.6809 3.30469L16.8515 17.3647L14.5508 31.2599L15.3802 17.1999L17.6809 3.30469Z" fill="white"/>
<path d="M30.092 18.8479L16.032 18.0185L2.13672 15.7178L16.1967 16.5472L30.092 18.8479Z" fill="white"/>
</g>
<g style="mix-blend-mode:overlay" opacity="0.2" filter="url(#filter4_f_4543_494)">
<path d="M17.6809 3.30469L16.8515 17.3647L14.5508 31.2599L15.3802 17.1999L17.6809 3.30469Z" fill="white"/>
<path d="M30.092 18.8479L16.032 18.0185L2.13672 15.7178L16.1967 16.5472L30.092 18.8479Z" fill="white"/>
</g>
<g style="mix-blend-mode:overlay" filter="url(#filter5_f_4543_494)">
<path d="M17.6809 3.30469L16.8515 17.3647L14.5508 31.2599L15.3802 17.1999L17.6809 3.30469Z" fill="white"/>
<path d="M30.092 18.8479L16.032 18.0185L2.13672 15.7178L16.1967 16.5472L30.092 18.8479Z" fill="white"/>
</g>
<g style="mix-blend-mode:overlay" filter="url(#filter6_f_4543_494)">
<path d="M17.6848 3.30566L16.8554 17.3657L14.5547 31.2609L15.3841 17.2009L17.6848 3.30566Z" fill="white"/>
<path d="M17.71 17.6613L16.0359 18.0186L2.14062 15.7178L16.2006 16.5472L17.71 17.6613Z" fill="white"/>
</g>
<g style="mix-blend-mode:overlay" filter="url(#filter7_f_4543_494)">
<path d="M17.681 3.30469L16.8516 17.3647L14.5508 31.26L15.3802 17.2L17.681 3.30469Z" fill="white"/>
<path d="M17.3993 17.3876L16.034 18.0182L14.0312 16.7995L16.1987 16.5469L17.3993 17.3876Z" fill="white"/>
</g>
<g style="mix-blend-mode:overlay" filter="url(#filter8_f_4543_494)">
<path d="M17.6809 3.30566L16.8515 17.3656L14.5508 31.2609L15.3802 17.2009L17.6809 3.30566Z" fill="white"/>
<path d="M17.3998 17.3885L16.0344 18.0191L12.75 16.548L16.1992 16.5479L17.3998 17.3885Z" fill="white"/>
</g>
<g style="mix-blend-mode:overlay" filter="url(#filter9_f_4543_494)">
<path d="M17.677 3.30469L16.8477 17.3647L14.5469 31.2599L15.3763 17.1999L17.677 3.30469Z" fill="white"/>
<path d="M16.8497 17.365L16.0316 18.0183L11.9453 17.2002L16.1964 16.5469L16.8497 17.365Z" fill="white"/>
</g>
<g style="mix-blend-mode:overlay" filter="url(#filter10_f_4543_494)">
<path d="M17.6848 3.30469L16.8554 17.3647L14.5547 31.26L15.3841 17.2L17.6848 3.30469Z" fill="white"/>
<path d="M16.1598 17.5965L16.0386 18.0182L11.4727 16.9598L16.2033 16.5469L16.1598 17.5965Z" fill="white"/>
</g>
<path d="M38.8025 16.8087L39.4075 16.7182C40.4111 16.568 40.9022 15.606 40.7816 14.8004C40.6411 13.8611 39.8177 13.2319 38.9063 13.3682L38.4274 13.4399C35.2469 13.9157 32.7755 16.7808 32.8006 19.9645L32.8338 23.2241L31.5145 23.4214C30.6741 23.5472 30.1226 24.3593 30.2589 25.27C30.391 26.1528 31.1527 26.7459 31.9931 26.6201L32.8531 26.4915L32.9068 32.4959L32.2166 32.5992C31.3336 32.7313 30.7755 33.551 30.9183 34.5056C31.0658 35.4911 31.8244 36.1085 32.7216 35.9743L42.2051 34.5554C43.0595 34.4276 43.5939 33.6002 43.4489 32.6309C43.306 31.6762 42.5542 31.0525 41.7002 31.1803L36.3793 31.9764L36.3453 25.969L39.5089 25.4956C40.3346 25.3721 40.8558 24.6022 40.7215 23.7047C40.5829 22.7788 39.856 22.1734 39.0304 22.297L36.3275 22.7013L36.2971 19.694C36.2765 18.4632 37.2075 17.0473 38.8025 16.8087Z" fill="white"/>
</g>
<defs>
<filter id="filter0_d_4543_494" x="15.3395" y="5.23633" width="41.5941" height="40.8792" filterUnits="userSpaceOnUse" color-interpolation-filters="sRGB">
<feFlood flood-opacity="0" result="BackgroundImageFix"/>
<feColorMatrix in="SourceAlpha" type="matrix" values="0 0 0 0 0 0 0 0 0 0 0 0 0 0 0 0 0 0 127 0" result="hardAlpha"/>
<feOffset dx="-0.961258" dy="0.961258"/>
<feComposite in2="hardAlpha" operator="out"/>
<feColorMatrix type="matrix" values="0 0 0 0 0.796875 0 0 0 0 0.82204 0 0 0 0 0.85 0 0 0 1 0"/>
<feBlend mode="normal" in2="BackgroundImageFix" result="effect1_dropShadow_4543_494"/>
<feBlend mode="normal" in="SourceGraphic" in2="effect1_dropShadow_4543_494" result="shape"/>
</filter>
<filter id="filter1_f_4543_494" x="-1.4046" y="-0.236633" width="35.0397" height="35.0377" filterUnits="userSpaceOnUse" color-interpolation-filters="sRGB">
<feFlood flood-opacity="0" result="BackgroundImageFix"/>
<feBlend mode="normal" in="SourceGraphic" in2="BackgroundImageFix" result="shape"/>
<feGaussianBlur stdDeviation="1.77066" result="effect1_foregroundBlur_4543_494"/>
</filter>
<filter id="filter2_f_4543_494" x="-1.4046" y="-0.236633" width="35.0397" height="35.0377" filterUnits="userSpaceOnUse" color-interpolation-filters="sRGB">
<feFlood flood-opacity="0" result="BackgroundImageFix"/>
<feBlend mode="normal" in="SourceGraphic" in2="BackgroundImageFix" result="shape"/>
<feGaussianBlur stdDeviation="1.77066" result="effect1_foregroundBlur_4543_494"/>
</filter>
<filter id="filter3_f_4543_494" x="0.956277" y="2.12425" width="30.3179" height="30.316" filterUnits="userSpaceOnUse" color-interpolation-filters="sRGB">
<feFlood flood-opacity="0" result="BackgroundImageFix"/>
<feBlend mode="normal" in="SourceGraphic" in2="BackgroundImageFix" result="shape"/>
<feGaussianBlur stdDeviation="0.590221" result="effect1_foregroundBlur_4543_494"/>
</filter>
<filter id="filter4_f_4543_494" x="-1.4046" y="-0.236633" width="35.0397" height="35.0377" filterUnits="userSpaceOnUse" color-interpolation-filters="sRGB">
<feFlood flood-opacity="0" result="BackgroundImageFix"/>
<feBlend mode="normal" in="SourceGraphic" in2="BackgroundImageFix" result="shape"/>
<feGaussianBlur stdDeviation="1.77066" result="effect1_foregroundBlur_4543_494"/>
</filter>
<filter id="filter5_f_4543_494" x="-1.4046" y="-0.236633" width="35.0397" height="35.0377" filterUnits="userSpaceOnUse" color-interpolation-filters="sRGB">
<feFlood flood-opacity="0" result="BackgroundImageFix"/>
<feBlend mode="normal" in="SourceGraphic" in2="BackgroundImageFix" result="shape"/>
<feGaussianBlur stdDeviation="1.77066" result="effect1_foregroundBlur_4543_494"/>
</filter>
<filter id="filter6_f_4543_494" x="-1.4007" y="-0.235656" width="22.653" height="35.0377" filterUnits="userSpaceOnUse" color-interpolation-filters="sRGB">
<feFlood flood-opacity="0" result="BackgroundImageFix"/>
<feBlend mode="normal" in="SourceGraphic" in2="BackgroundImageFix" result="shape"/>
<feGaussianBlur stdDeviation="1.77066" result="effect1_foregroundBlur_4543_494"/>
</filter>
<filter id="filter7_f_4543_494" x="10.4899" y="-0.236633" width="10.7311" height="35.0377" filterUnits="userSpaceOnUse" color-interpolation-filters="sRGB">
<feFlood flood-opacity="0" result="BackgroundImageFix"/>
<feBlend mode="normal" in="SourceGraphic" in2="BackgroundImageFix" result="shape"/>
<feGaussianBlur stdDeviation="1.77066" result="effect1_foregroundBlur_4543_494"/>
</filter>
<filter id="filter8_f_4543_494" x="9.20868" y="-0.235656" width="12.0123" height="35.0377" filterUnits="userSpaceOnUse" color-interpolation-filters="sRGB">
<feFlood flood-opacity="0" result="BackgroundImageFix"/>
<feBlend mode="normal" in="SourceGraphic" in2="BackgroundImageFix" result="shape"/>
<feGaussianBlur stdDeviation="1.77066" result="effect1_foregroundBlur_4543_494"/>
</filter>
<filter id="filter9_f_4543_494" x="8.40399" y="-0.236633" width="12.8131" height="35.0377" filterUnits="userSpaceOnUse" color-interpolation-filters="sRGB">
<feFlood flood-opacity="0" result="BackgroundImageFix"/>
<feBlend mode="normal" in="SourceGraphic" in2="BackgroundImageFix" result="shape"/>
<feGaussianBlur stdDeviation="1.77066" result="effect1_foregroundBlur_4543_494"/>
</filter>
<filter id="filter10_f_4543_494" x="10.2922" y="2.12425" width="8.57182" height="30.316" filterUnits="userSpaceOnUse" color-interpolation-filters="sRGB">
<feFlood flood-opacity="0" result="BackgroundImageFix"/>
<feBlend mode="normal" in="SourceGraphic" in2="BackgroundImageFix" result="shape"/>
<feGaussianBlur stdDeviation="0.590221" result="effect1_foregroundBlur_4543_494"/>
</filter>
<linearGradient id="paint0_linear_4543_494" x1="14.2932" y1="17.1755" x2="55.4555" y2="25.5413" gradientUnits="userSpaceOnUse">
<stop stop-color="#F9FAFB"/>
<stop offset="0.48" stop-color="#A8A8A8"/>
<stop offset="1" stop-color="white"/>
</linearGradient>
<clipPath id="clip0_4543_494">
<rect width="57" height="47" fill="white"/>
</clipPath>
</defs>
</svg>
