<svg width="424" height="92" viewBox="0 0 424 92" fill="none" xmlns="http://www.w3.org/2000/svg">
<rect width="424" height="92" rx="10" fill="#FCD800"/>
<path d="M57 0H0V92H57V0Z" fill="#FCD800"/>
<path d="M23.6661 64.5781H27.2061V71.4461C27.2061 72.1281 27.1001 72.7701 26.8891 73.3761C26.6771 73.9801 26.3461 74.5101 25.8941 74.9761C25.4431 75.4291 24.9691 75.7471 24.4731 75.9311C23.7841 76.1881 22.9561 76.3161 21.9911 76.3161C21.4311 76.3161 20.8221 76.2771 20.1621 76.1991C19.5021 76.1201 18.9491 75.9651 18.5061 75.7311C18.0621 75.4981 17.6561 75.1671 17.2881 74.7371C16.9201 74.3071 16.6681 73.8651 16.5321 73.4091C16.3121 72.6761 16.2031 72.0261 16.2031 71.4601V64.5921H19.7431V71.6241C19.7431 72.2241 19.9431 72.7241 20.2431 73.0971C20.5911 73.4971 21.0431 73.5971 21.6431 73.5971C22.2531 73.5971 22.7331 73.4231 23.0801 73.0751C23.4281 72.7271 23.6011 72.2331 23.6011 71.5951V64.5781H23.6661Z" fill="#003399"/>
<path d="M29.5703 64.5781H33.1183V68.9341L36.8343 64.5781H41.5533L37.3643 68.9301L41.7423 76.1071H37.3733L34.9523 71.3661L33.1193 73.2941V76.1071H29.5713L29.5703 64.5781Z" fill="#003399"/>
<g clipPath="url(#clip0_4535_814)">
<path d="M45.0763 47H11.9237C10.858 46.9391 10 46.0385 10 44.9484V23.0516C10 21.9276 10.9049 21.0068 12.0176 21H44.9824C46.0951 21.0068 47 21.9276 47 23.0516V44.9417C47 46.0385 46.142 46.9391 45.0763 47Z" fill="#FEFEFE"/>
<path d="M31.0873 36.5932V47H25.9395V36.5932H10V31.3932H25.9395V21H31.0873V31.3932H47V36.5932H31.0873Z" fill="#C8102E"/>
<path d="M24.2227 29.4161V21H12.0033C11.1587 21.0135 10.4348 21.5484 10.1399 22.3L24.2227 29.4161Z" fill="#012169"/>
<path d="M24.2227 38.584V47.0001H11.9228C11.1118 46.9527 10.4281 46.4246 10.1399 45.7001L24.2227 38.584Z" fill="#012169"/>
<path d="M32.8034 38.584V47.0001H45.0764C45.8875 46.9527 46.5779 46.4246 46.8594 45.6866L32.8034 38.584Z" fill="#012169"/>
<path d="M32.8034 29.4161V21H44.996C45.8405 21.0135 46.5712 21.5552 46.8594 22.3135L32.8034 29.4161Z" fill="#012169"/>
<path d="M47 29.6665H41.8723L47 27.0732V29.6665Z" fill="#012169"/>
<path d="M10.0017 29.6663H15.1562L10.0017 27.0596V29.6663Z" fill="#012169"/>
<path d="M10.0017 38.333H15.1562L10.0017 40.9398V38.333Z" fill="#012169"/>
<path d="M47 38.333H41.8723L47 40.9262V38.333Z" fill="#012169"/>
<path d="M10.0005 23.2002L22.7695 29.6663H19.9141L10.0005 24.6559V23.2002Z" fill="#C8102E"/>
<path d="M34.2578 38.333H37.1132L47 43.3299V44.7856L34.231 38.333H34.2578Z" fill="#C8102E"/>
<path d="M39.9486 29.6735H37.0931L47 24.6631V26.112L39.9486 29.6735Z" fill="#C8102E"/>
<path d="M17.086 38.3262H19.9414L10.001 43.3569V41.9079L17.086 38.3262Z" fill="#C8102E"/>
</g>
<defs>
<clipPath id="clip0_4535_814">
<rect width="37" height="26" fill="white" transform="matrix(-1 0 0 1 47 21)"/>
</clipPath>
</defs>
</svg>
